<?xml version="1.0" encoding="iso-8859-1"?>
<!DOCTYPE svg PUBLIC "-//W3C//DTD SVG 1.1//EN" "http://www.w3.org/Graphics/SVG/1.1/DTD/svg11.dtd">
<svg 
 version="1.1" xmlns="http://www.w3.org/2000/svg" xmlns:xlink="http://www.w3.org/1999/xlink" x="0px" y="0px" width="512px"
	 height="512px" viewBox="0 0 512 512" style="enable-background:new 0 0 512 512;" xml:space="preserve"
><g id="afcae5a789ccd549f9c6e2a2f812b06a"><g></g><path style="display: inline;" d="M31.617,450.18h85.341v40.881c0,11.241-12.097,20.439-26.88,20.439H58.492
		c-14.779,0-26.875-9.198-26.875-20.439V450.18z M399.535,491.061c0,11.241,12.097,20.439,26.875,20.439h31.587
		c14.787,0,26.883-9.198,26.883-20.439V450.18h-85.345V491.061z M501.28,41.38v212.065v74.095v41.71v40.05v20.44H10.72V409.3v-40.05
		v-41.71v-74.095V41.38C10.72,18.896,29.116,0.5,51.6,0.5H460.4C482.884,0.5,501.28,18.896,501.28,41.38z M112.92,378.64
		c0-16.935-13.726-30.659-30.66-30.659S51.6,361.705,51.6,378.64c0,16.936,13.726,30.66,30.66,30.66S112.92,395.575,112.92,378.64z
		 M460.4,378.64c0-16.935-13.726-30.659-30.66-30.659c-16.936,0-30.66,13.725-30.66,30.659c0,16.936,13.725,30.66,30.66,30.66
		C446.675,409.3,460.4,395.575,460.4,378.64z M460.4,143.58H51.6V307.1H460.4V143.58z M460.4,41.38H51.6v61.32H460.4V41.38z"></path></g></svg>